HIERARCHY
ROOT Hips
{
	OFFSET -0.001795 -0.223333 0.028219
	CHANNELS 6 Xposition Yposition Zposition Zrotation Yrotation Xrotation 
	JOINT LeftUpLeg
	{
		OFFSET 0.069520 -0.091406 -0.006815
		CHANNELS 3 Zrotation Yrotation Xrotation
		JOINT LeftLeg
		{
			OFFSET 0.034277 -0.375199 -0.004496
			CHANNELS 3 Zrotation Yrotation Xrotation
			JOINT LeftFoot
			{
				OFFSET -0.013596 -0.397961 -0.043693
				CHANNELS 3 Zrotation Yrotation Xrotation
				JOINT LeftToe
				{
					OFFSET 0.026358 -0.055791 0.119288
					CHANNELS 3 Zrotation Yrotation Xrotation
					End Site
					{
						OFFSET 0.000000 0.000000 0.000000
					}
				}
			}
		}
	}
	JOINT RightUpLeg
	{
		OFFSET -0.067670 -0.090522 -0.004320
		CHANNELS 3 Zrotation Yrotation Xrotation
		JOINT RightLeg
		{
			OFFSET -0.038290 -0.382569 -0.008850
			CHANNELS 3 Zrotation Yrotation Xrotation
			JOINT RightFoot
			{
				OFFSET 0.015774 -0.398415 -0.042312
				CHANNELS 3 Zrotation Yrotation Xrotation
				JOINT RightToe
				{
					OFFSET -0.025372 -0.048144 0.123348
					CHANNELS 3 Zrotation Yrotation Xrotation
					End Site
					{
						OFFSET 0.000000 0.000000 0.000000
					}
				}
			}
		}
	}
	JOINT Spine
	{
		OFFSET -0.002533 0.108963 -0.026696
		CHANNELS 3 Zrotation Yrotation Xrotation
		JOINT Spine1
		{
			OFFSET 0.005487 0.135180 0.001092
			CHANNELS 3 Zrotation Yrotation Xrotation
			JOINT Spine2
			{
				OFFSET 0.001457 0.052922 0.025425
				CHANNELS 3 Zrotation Yrotation Xrotation
				JOINT Neck
				{
					OFFSET -0.002778 0.213870 -0.042857
					CHANNELS 3 Zrotation Yrotation Xrotation
					JOINT Head
					{
						OFFSET 0.005152 0.064970 0.051349
						CHANNELS 3 Zrotation Yrotation Xrotation
						End Site
						{
							OFFSET 0.000000 0.000000 0.000000
						}
					}
				}
				JOINT LeftShoulder
				{
					OFFSET 0.078845 0.121749 -0.034090
					CHANNELS 3 Zrotation Yrotation Xrotation
					JOINT LeftArm
					{
						OFFSET 0.090977 0.030469 -0.008868
						CHANNELS 3 Zrotation Yrotation Xrotation
						JOINT LeftForeArm
						{
							OFFSET 0.259612 -0.012772 -0.027456
							CHANNELS 3 Zrotation Yrotation Xrotation
							JOINT LeftHand
							{
								OFFSET 0.249234 0.008986 -0.001171
								CHANNELS 3 Zrotation Yrotation Xrotation
								End Site
								{
									OFFSET 0.000000 0.000000 0.000000
								}
							}
						}
					}
				}
				JOINT RightShoulder
				{
					OFFSET -0.081759 0.118833 -0.038615
					CHANNELS 3 Zrotation Yrotation Xrotation
					JOINT RightArm
					{
						OFFSET -0.096012 0.032551 -0.009143
						CHANNELS 3 Zrotation Yrotation Xrotation
						JOINT RightForeArm
						{
							OFFSET -0.253742 -0.013329 -0.021401
							CHANNELS 3 Zrotation Yrotation Xrotation
							JOINT RightHand
							{
								OFFSET -0.255298 0.007772 -0.005559
								CHANNELS 3 Zrotation Yrotation Xrotation
								End Site
								{
									OFFSET 0.000000 0.000000 0.000000
								}
							}
						}
					}
				}
			}
		}
	}
}
MOTION
Frames: 5
Frame Time: 0.050000
-0.041131 0.942481 2.437449 -1.101084 -0.889151 -5.535484 -1.955310 -0.980391 -8.976431 -1.261987 -0.125556 12.079187 0.993829 5.248749 8.828027 0.000000 0.000000 0.000000 1.653677 0.041704 -0.527983 2.353657 1.070265 50.011509 -0.928269 2.110523 -7.801883 0.000000 0.000000 0.000000 -9.110514 0.382509 11.519458 9.261308 -1.626560 -25.065143 -0.140700 -1.044845 34.060154 -2.432181 2.832978 -32.075782 0.000000 0.000000 0.000000 -27.989498 10.824185 -7.966417 -39.544084 0.035114 -7.322848 -108.905119 -47.563255 70.909967 0.000000 0.000000 0.000000 14.236951 -2.525500 -2.127140 49.578226 -9.023768 -11.266093 101.608246 48.632308 62.152035 0.000000 0.000000 0.000000 
-0.043794 0.947493 2.491368 -1.396482 -0.032849 -6.613590 -1.696348 -0.481373 -4.469369 -0.979354 -0.221321 12.497120 0.734711 4.257339 6.938349 0.000000 0.000000 0.000000 1.807133 0.771154 -6.758184 3.039740 0.360328 47.805036 -4.634909 0.600875 -24.574623 0.000000 0.000000 0.000000 -8.134382 0.303146 13.396345 8.875597 -1.444463 -26.005680 -1.679082 -3.684636 33.882811 -4.130570 3.372987 -32.567558 0.000000 0.000000 0.000000 -28.235801 8.919627 -5.898159 -40.096000 -5.821895 -5.985848 -106.743901 -53.451127 77.200896 0.000000 0.000000 0.000000 14.123985 -1.435026 -1.968897 49.679296 -9.408063 -11.410129 98.745605 48.709119 58.414272 0.000000 0.000000 0.000000 
-0.046619 0.956357 2.540494 -2.001650 1.197589 -6.647479 -1.356240 -0.053674 -0.502300 0.039139 -0.413386 10.889189 0.060886 3.413446 7.661563 0.000000 0.000000 0.000000 2.882953 1.320496 -10.671770 1.456869 0.624588 34.087013 -2.455675 1.809481 -15.315613 0.000000 0.000000 0.000000 -6.756066 0.132810 13.642662 8.552361 -1.347161 -26.123545 -2.798675 -5.690615 33.348116 -5.591569 3.941880 -32.779985 0.000000 0.000000 0.000000 -29.670505 8.259211 -5.206298 -40.974181 -11.429590 -4.489603 -105.805871 -56.565788 80.643738 0.000000 0.000000 0.000000 12.773756 -1.031373 -1.822632 50.801701 -10.434545 -12.053843 98.760283 48.245671 57.223070 0.000000 0.000000 0.000000 
-0.049649 0.961498 2.588164 -2.167759 1.738954 -7.038412 -1.011369 0.362953 3.739508 0.403658 -0.429391 9.342290 -0.287964 3.130322 8.403946 0.000000 0.000000 0.000000 3.216591 1.421209 -11.223037 -0.026567 0.641590 17.541863 1.579094 1.165076 5.367091 0.000000 0.000000 0.000000 -5.122339 -0.054238 13.723526 7.512046 -0.980486 -27.411398 -3.817335 -5.752680 33.920141 -5.616248 4.015816 -32.031749 0.000000 0.000000 0.000000 -28.128875 6.783097 -4.113510 -43.200258 -13.968315 -3.781845 -110.214014 -57.165876 86.586848 0.000000 0.000000 0.000000 12.992953 -1.262913 -1.874993 51.184047 -11.099284 -12.519182 100.813464 47.747342 58.825657 0.000000 0.000000 0.000000 
-0.052708 0.960293 2.635533 -1.654314 3.450627 -7.247688 -1.467859 0.517569 5.227768 0.683619 -0.626363 11.736349 -0.178128 3.705531 9.012628 0.000000 0.000000 0.000000 3.934713 1.240035 -9.342604 -1.813004 0.741603 10.503400 0.876410 -4.928456 19.081585 0.000000 0.000000 0.000000 -4.622346 -0.125027 12.506216 6.269109 -0.735814 -26.633847 -3.647226 -6.333877 33.517752 -6.136685 4.384554 -31.822781 0.000000 0.000000 0.000000 -27.398316 5.278473 -3.258865 -44.533502 -14.714779 -3.449862 -114.997477 -55.886387 90.540799 0.000000 0.000000 0.000000 12.587064 -1.484292 -1.838538 51.483542 -11.449892 -12.707258 103.496752 48.609348 62.619384 0.000000 0.000000 0.000000 
